<?xml version="1.0" encoding="utf-8"?>
<!DOCTYPE svg PUBLIC "-//W3C//DTD SVG 1.1//EN" "http://www.w3.org/Graphics/SVG/1.1/DTD/svg11.dtd" >
<svg version="1.1"
	 xmlns="http://www.w3.org/2000/svg" xmlns:xlink="http://www.w3.org/1999/xlink" 
	 x="0px" y="0px" width="720px" height="500px" viewBox="142 33 720 500" enable-background="new 142 33 720 500"
	 xml:space="preserve">
<defs>
</defs>
<g>
	<g>
		<g>
			<g opacity="0.5">
				<path fill="#231F20" d="M757.047,488.317c-3.805,14.2-18.401,22.628-32.602,18.822L518.75,452.024
					c-14.2-3.805-22.627-18.401-18.822-32.602l89.563-334.256c3.805-14.2,18.401-22.627,32.603-18.822l205.694,55.116
					c14.2,3.805,22.628,18.402,18.823,32.602L757.047,488.317z"/>
				<path fill="none" stroke="#231F20" stroke-miterlimit="10" d="M757.047,488.317c-3.805,14.2-18.401,22.628-32.602,18.822
					L518.75,452.024c-14.2-3.805-22.627-18.401-18.822-32.602l89.563-334.256c3.805-14.2,18.401-22.627,32.603-18.822
					l205.694,55.116c14.2,3.805,22.628,18.402,18.823,32.602L757.047,488.317z"/>
			</g>
			<g>
				<path fill="#FFFFFF" d="M740.316,473.482c-3.805,14.2-18.401,22.627-32.602,18.823L502.02,437.188
					c-14.2-3.805-22.627-18.402-18.822-32.602l89.564-334.256c3.805-14.2,18.4-22.627,32.602-18.822l205.694,55.116
					c14.2,3.805,22.628,18.401,18.823,32.601L740.316,473.482z"/>
				<path fill="none" stroke="#231F20" stroke-miterlimit="10" d="M740.316,473.482c-3.805,14.2-18.401,22.627-32.602,18.823
					L502.02,437.188c-14.2-3.805-22.627-18.402-18.822-32.602l89.564-334.256c3.805-14.2,18.4-22.627,32.602-18.822l205.694,55.116
					c14.2,3.805,22.628,18.401,18.823,32.601L740.316,473.482z"/>
			</g>
		</g>
		<g>
			<polygon fill="#ED2E2E" points="675.526,201.049 605.396,140.519 696.396,123.166 766.523,183.693 			"/>
			<polygon fill="#ED2E2E" points="646.105,310.848 575.975,250.318 666.975,232.965 737.103,293.492 			"/>
			<polygon fill="#ED2E2E" points="616.686,420.647 546.555,360.116 637.554,342.764 707.683,403.291 			"/>
		</g>
	</g>
</g>
<g>
	<g opacity="0.5">
		<path fill="#231F20" d="M674.903,434.5c0,14.701-11.917,26.619-26.618,26.619H435.333c-14.701,0-26.619-11.918-26.619-26.619
			V88.453c0-14.701,11.917-26.619,26.619-26.619h212.952c14.701,0,26.618,11.918,26.618,26.619V434.5z"/>
		<path fill="none" stroke="#231F20" stroke-miterlimit="10" d="M674.903,434.5c0,14.701-11.917,26.619-26.618,26.619H435.333
			c-14.701,0-26.619-11.918-26.619-26.619V88.453c0-14.701,11.917-26.619,26.619-26.619h212.952
			c14.701,0,26.618,11.918,26.618,26.619V434.5z"/>
	</g>
	<g>
		<path fill="#FFFFFF" d="M654.903,424.5c0,14.701-11.917,26.619-26.618,26.619H415.333c-14.701,0-26.619-11.918-26.619-26.619
			V78.453c0-14.701,11.917-26.619,26.619-26.619h212.952c14.701,0,26.618,11.918,26.618,26.619V424.5z"/>
		<path fill="none" stroke="#231F20" stroke-miterlimit="10" d="M654.903,424.5c0,14.701-11.917,26.619-26.618,26.619H415.333
			c-14.701,0-26.619-11.918-26.619-26.619V78.453c0-14.701,11.917-26.619,26.619-26.619h212.952
			c14.701,0,26.618,11.918,26.618,26.619V424.5z"/>
	</g>
</g>
<path fill="#32B34A" d="M605.215,196.02c0,23.032-18.67,41.703-41.703,41.703h-83.406c-23.032,0-41.703-18.671-41.703-41.703l0,0
	c0-23.032,18.671-41.703,41.703-41.703h83.406C586.545,154.317,605.215,172.988,605.215,196.02L605.215,196.02z"/>
<path fill="#32B34A" d="M605.215,306.932c0,23.033-18.67,41.703-41.703,41.703h-83.406c-23.032,0-41.703-18.67-41.703-41.703l0,0
	c0-23.031,18.671-41.703,41.703-41.703h83.406C586.545,265.229,605.215,283.901,605.215,306.932L605.215,306.932z"/>
<g>
	<g>
		<g>
			<g opacity="0.5">
				<path fill="#231F20" d="M537.254,414.245c3.805,14.201-4.623,28.796-18.822,32.602l-205.695,55.116
					c-14.201,3.805-28.797-4.622-32.602-18.823l-89.563-334.255c-3.805-14.2,4.622-28.796,18.823-32.601l205.695-55.116
					c14.2-3.805,28.797,4.622,32.602,18.822L537.254,414.245z"/>
				<path fill="none" stroke="#231F20" stroke-miterlimit="10" d="M537.254,414.245c3.805,14.201-4.623,28.796-18.822,32.602
					l-205.695,55.116c-14.201,3.805-28.797-4.622-32.602-18.823l-89.563-334.255c-3.805-14.2,4.622-28.796,18.823-32.601
					l205.695-55.116c14.2-3.805,28.797,4.622,32.602,18.822L537.254,414.245z"/>
			</g>
			<g>
				<path fill="#FFFFFF" d="M515.348,409.762c3.805,14.201-4.623,28.796-18.823,32.602L290.83,497.479
					c-14.201,3.806-28.796-4.621-32.602-18.822l-89.563-334.255c-3.805-14.2,4.622-28.796,18.823-32.601l205.695-55.116
					c14.2-3.805,28.797,4.622,32.602,18.822L515.348,409.762z"/>
				<path fill="none" stroke="#231F20" stroke-miterlimit="10" d="M515.348,409.762c3.805,14.201-4.623,28.796-18.823,32.602
					L290.83,497.479c-14.201,3.806-28.796-4.621-32.602-18.822l-89.563-334.255c-3.805-14.2,4.622-28.796,18.823-32.601
					l205.695-55.116c14.2-3.805,28.797,4.622,32.602,18.822L515.348,409.762z"/>
			</g>
		</g>
		<g>
			<path fill-rule="evenodd" clip-rule="evenodd" fill="#6D3E97" d="M266.117,314.191c-6.259-15.833-2.866-36.325,5.069-48.201
				c9.19-13.756,31.092-23.922,53.396-23.927c10.915-0.002,23.118,4.62,36.821-1.501c6.046-2.702,12.651-7.848,17.526-12.642
				c5.729-5.636,8.962-11.883,16.247-12.719c12.922-1.483,20.871,14.923,23.583,27.139c6.124,27.565-6.292,53.842-39.693,57.896
				c-10.138,1.231-19.023,0.216-27.846-0.902c-11.085-1.407-26.254-2.385-39.211,5.068c-5.218,3.002-11.638,9.028-14.688,12.3
				c-2.655,2.85-8.356,10.943-14.792,11.913C274.728,329.786,268.713,320.759,266.117,314.191z"/>
		</g>
	</g>
</g>
</svg>
